<?xml version="1.0" encoding="utf-8"?>
<!-- Generator: Adobe Illustrator 28.0.0, SVG Export Plug-In . SVG Version: 6.00 Build 0)  -->
<svg version="1.1" xmlns="http://www.w3.org/2000/svg" xmlns:xlink="http://www.w3.org/1999/xlink" x="0px" y="0px"
	 viewBox="0 0 2232 288" style="enable-background:new 0 0 2232 288;" xml:space="preserve">
<style type="text/css">
	.st0{fill:#37BFCB;}
	.st1{fill:#2E3B45;}
</style>
<g id="Layer_1">
</g>
<g id="Icon">
	<g>
		<g>
			<path class="st0" d="M175.5,35.5C235.3,35.5,284,84.1,284,144s-48.7,108.5-108.5,108.5S67,203.8,67,144S115.7,35.5,175.5,35.5
				 M175.5,4.5C98.5,4.5,36,66.9,36,144s62.5,139.5,139.5,139.5S315,221,315,144S252.5,4.5,175.5,4.5L175.5,4.5z"/>
		</g>
		<g>
			<path class="st1" d="M299.5,4.5L299.5,4.5l0,31h0C359.3,35.5,408,84.1,408,144s-48.7,108.5-108.5,108.5h0v31h0
				c77,0,139.5-62.5,139.5-139.5C439,66.9,376.5,4.5,299.5,4.5z"/>
		</g>
		<rect x="173.2" y="127.3" class="st1" width="186.6" height="33.3"/>
		<polygon class="st0" points="295.1,173.8 173.2,173.8 173.2,207.1 295.1,207.1 295.1,173.8 		"/>
	</g>
	<g>
		<g>
			<path class="st0" d="M579.6,49c12.2,0,22.7,1.4,31.5,4.3c8.8,2.9,16,6.9,21.7,12c5.7,5.1,9.9,11.1,12.6,18c2.7,6.9,4,14.4,4,22.4
				c0,8.7-1.4,16.6-4.2,23.8c-2.8,7.2-7,13.4-12.7,18.6c-5.7,5.2-13,9.2-21.7,12.1c-8.8,2.9-19.2,4.3-31.1,4.3h-21v58h-40.2V49
				H579.6z M579.6,134.2c10.5,0,18-2.5,22.6-7.5c4.6-5,6.9-12,6.9-21c0-4-0.6-7.6-1.8-10.8c-1.2-3.3-3-6.1-5.4-8.4
				c-2.4-2.3-5.5-4.2-9.2-5.4c-3.7-1.3-8.1-1.9-13.2-1.9h-21v55H579.6z"/>
			<path class="st0" d="M686.6,167.4c1.2,10.3,4.3,17.8,9.4,22.4c5.1,4.6,11.6,7,19.6,7c4.3,0,8-0.5,11.1-1.5c3.1-1,5.9-2.2,8.3-3.5
				c2.4-1.3,4.6-2.4,6.7-3.5c2-1,4.1-1.5,6.4-1.5c2.9,0,5.2,1.1,6.7,3.2l10.7,13.2c-3.8,4.4-7.9,7.9-12.3,10.7
				c-4.4,2.7-8.9,4.9-13.6,6.4c-4.6,1.5-9.3,2.6-13.9,3.2c-4.6,0.6-9.1,0.9-13.3,0.9c-8.7,0-16.8-1.4-24.3-4.2
				c-7.6-2.8-14.2-7-19.9-12.6s-10.2-12.5-13.5-20.7c-3.3-8.3-4.9-17.9-4.9-28.8c0-8.3,1.4-16.1,4.2-23.5
				c2.8-7.4,6.9-13.9,12.1-19.4c5.3-5.6,11.7-10,19.2-13.2c7.5-3.3,16-4.9,25.4-4.9c8.2,0,15.7,1.3,22.4,3.8
				c6.8,2.5,12.6,6.2,17.5,11.1c4.9,4.8,8.7,10.8,11.4,17.8c2.7,7,4.1,15,4.1,23.9c0,2.8-0.1,5-0.4,6.8c-0.2,1.7-0.7,3.1-1.3,4.2
				c-0.6,1-1.5,1.7-2.6,2.1c-1.1,0.4-2.4,0.6-4.1,0.6H686.6z M733,145.9c0-2.9-0.4-5.8-1.1-8.6c-0.8-2.8-2-5.3-3.7-7.4
				c-1.7-2.2-4-3.9-6.7-5.3c-2.8-1.3-6.2-2-10.1-2c-7,0-12.5,2-16.4,6c-4,4-6.6,9.8-7.9,17.3H733z"/>
			<path class="st0" d="M808.1,118.1c3.8-6.7,8.2-11.9,13.2-15.7c5-3.8,10.7-5.7,17.1-5.7c5.6,0,10.1,1.3,13.6,3.9l-2.4,27.2
				c-0.4,1.7-1.1,2.9-2,3.6c-0.9,0.6-2.2,1-3.8,1c-0.6,0-1.5,0-2.5-0.1c-1-0.1-2.1-0.2-3.2-0.3c-1.1-0.1-2.2-0.2-3.4-0.4
				c-1.2-0.1-2.2-0.2-3.2-0.2c-5.4,0-9.7,1.4-12.9,4.3c-3.2,2.9-5.9,6.8-8.2,11.9v75h-36.9V99h21.9c1.8,0,3.4,0.2,4.6,0.5
				c1.2,0.3,2.3,0.8,3.1,1.5c0.8,0.7,1.5,1.6,1.9,2.7c0.4,1.1,0.8,2.5,1.1,4L808.1,118.1z"/>
			<path class="st0" d="M875.8,222.5v-98.1l-8.1-1.7c-2.8-0.6-5-1.6-6.7-3c-1.7-1.3-2.6-3.3-2.6-6V99.3h17.4v-7
				c0-7.1,1.1-13.5,3.4-19.2c2.3-5.7,5.5-10.6,9.8-14.6c4.3-4.1,9.4-7.2,15.5-9.4c6.1-2.2,13.1-3.3,20.8-3.3c3,0,5.8,0.2,8.3,0.5
				c2.5,0.4,5.2,0.9,8,1.7l-0.7,18c-0.1,1.3-0.4,2.3-1,3.2c-0.6,0.8-1.3,1.5-2.2,2s-1.9,0.9-2.9,1.1c-1,0.2-2.1,0.4-3.1,0.4
				c-3.3,0-6.2,0.3-8.7,1c-2.5,0.6-4.7,1.8-6.4,3.4c-1.7,1.6-3,3.8-3.9,6.4c-0.9,2.7-1.3,6-1.3,10.1v5.8h28.9v25.2h-27.7v98H875.8z"
				/>
			<path class="st0" d="M976.5,167.4c1.2,10.3,4.3,17.8,9.4,22.4c5.1,4.6,11.6,7,19.6,7c4.3,0,8-0.5,11.1-1.5c3.1-1,5.8-2.2,8.3-3.5
				c2.4-1.3,4.6-2.4,6.7-3.5c2-1,4.1-1.5,6.4-1.5c2.9,0,5.2,1.1,6.7,3.2l10.7,13.2c-3.8,4.4-7.9,7.9-12.3,10.7s-8.9,4.9-13.6,6.4
				s-9.3,2.6-13.9,3.2c-4.6,0.6-9.1,0.9-13.3,0.9c-8.7,0-16.8-1.4-24.3-4.2c-7.6-2.8-14.2-7-19.9-12.6c-5.7-5.6-10.2-12.5-13.5-20.7
				c-3.3-8.3-4.9-17.9-4.9-28.8c0-8.3,1.4-16.1,4.2-23.5c2.8-7.4,6.9-13.9,12.1-19.4c5.3-5.6,11.7-10,19.2-13.2
				c7.5-3.3,16-4.9,25.4-4.9c8.2,0,15.7,1.3,22.4,3.8c6.8,2.5,12.6,6.2,17.5,11.1c4.9,4.8,8.7,10.8,11.4,17.8c2.7,7,4.1,15,4.1,23.9
				c0,2.8-0.1,5-0.4,6.8c-0.2,1.7-0.7,3.1-1.3,4.2c-0.6,1-1.5,1.7-2.6,2.1c-1.1,0.4-2.4,0.6-4.1,0.6H976.5z M1022.9,145.9
				c0-2.9-0.4-5.8-1.1-8.6c-0.8-2.8-2-5.3-3.7-7.4c-1.7-2.2-4-3.9-6.7-5.3c-2.8-1.3-6.2-2-10.1-2c-7,0-12.5,2-16.4,6
				c-4,4-6.6,9.8-7.9,17.3H1022.9z"/>
			<path class="st0" d="M1158.7,128.3c-1.1,1.4-2.2,2.4-3.2,3.2c-1,0.8-2.5,1.2-4.4,1.2c-1.8,0-3.5-0.4-4.9-1.3
				c-1.5-0.9-3.1-1.8-4.9-2.9c-1.8-1.1-4-2-6.4-2.9c-2.5-0.9-5.5-1.3-9.2-1.3c-4.5,0-8.4,0.8-11.7,2.5c-3.3,1.7-6,4-8.2,7.1
				c-2.1,3.1-3.7,6.9-4.8,11.4c-1,4.5-1.5,9.5-1.5,15.2c0,11.8,2.3,20.9,6.8,27.3c4.6,6.3,10.9,9.5,18.9,9.5c4.3,0,7.7-0.5,10.2-1.6
				c2.5-1.1,4.6-2.3,6.4-3.6c1.7-1.3,3.3-2.5,4.8-3.6c1.5-1.1,3.3-1.7,5.5-1.7c2.9,0,5.2,1.1,6.7,3.2l10.7,13.2
				c-3.8,4.4-7.8,7.9-12,10.7c-4.2,2.7-8.5,4.9-12.9,6.4s-8.8,2.6-13.3,3.2c-4.4,0.6-8.8,0.9-13,0.9c-7.5,0-14.7-1.4-21.6-4.3
				c-6.9-2.9-12.9-7-18.1-12.4c-5.2-5.4-9.3-12.1-12.4-20.1c-3.1-7.9-4.6-17-4.6-27.1c0-8.9,1.3-17.2,4-24.9
				c2.7-7.7,6.6-14.4,11.8-20.1c5.2-5.7,11.6-10.1,19.3-13.4c7.7-3.3,16.5-4.9,26.6-4.9c9.7,0,18.2,1.5,25.5,4.6
				c7.3,3.1,13.9,7.6,19.8,13.6L1158.7,128.3z"/>
			<path class="st0" d="M1224.6,224.4c-5.9,0-11.1-0.9-15.5-2.6c-4.5-1.7-8.3-4.1-11.3-7.3c-3.1-3.1-5.4-6.9-7-11.4
				c-1.6-4.4-2.4-9.4-2.4-14.9v-63.8h-10.5c-1.9,0-3.5-0.6-4.9-1.8c-1.4-1.2-2-3-2-5.4v-14.4l19.7-3.8l7.3-30.1
				c1-3.8,3.7-5.7,8.1-5.7h19.3v36.1h30.6v25.2h-30.6v61.3c0,2.9,0.7,5.2,2.1,7.1c1.4,1.9,3.4,2.8,6,2.8c1.3,0,2.5-0.1,3.4-0.4
				c0.9-0.3,1.7-0.6,2.4-1c0.7-0.4,1.3-0.7,1.9-0.9c0.6-0.3,1.3-0.4,2.1-0.4c1.1,0,2,0.3,2.7,0.8s1.4,1.3,2.1,2.4l11.2,17.5
				c-4.8,3.6-10.1,6.3-16.1,8C1237.1,223.5,1231,224.4,1224.6,224.4z"/>
			<path class="st0" d="M1330.1,49c12.2,0,22.7,1.4,31.5,4.3c8.8,2.9,16,6.9,21.7,12c5.7,5.1,9.9,11.1,12.6,18
				c2.7,6.9,4.1,14.4,4.1,22.4c0,8.7-1.4,16.6-4.2,23.8c-2.8,7.2-7,13.4-12.7,18.6c-5.7,5.2-13,9.2-21.7,12.1
				c-8.8,2.9-19.2,4.3-31.1,4.3h-21v58h-40.2V49H1330.1z M1330.1,134.2c10.5,0,18-2.5,22.6-7.5c4.6-5,6.9-12,6.9-21
				c0-4-0.6-7.6-1.8-10.8c-1.2-3.3-3-6.1-5.4-8.4c-2.4-2.3-5.5-4.2-9.2-5.4c-3.7-1.3-8.1-1.9-13.2-1.9h-21v55H1330.1z"/>
			<path class="st0" d="M1406.3,116.2c7.5-6.6,15.7-11.5,24.8-14.7c9.1-3.2,18.8-4.8,29.2-4.8c7.5,0,14.2,1.2,20.2,3.6
				c6,2.4,11.1,5.8,15.2,10.1c4.2,4.3,7.4,9.5,9.6,15.4c2.2,6,3.3,12.5,3.3,19.5v77.2h-16.9c-3.5,0-6.1-0.5-7.9-1.4
				c-1.8-1-3.3-2.9-4.5-6l-2.6-6.8c-3.1,2.6-6.1,4.9-8.9,6.9c-2.9,2-5.8,3.7-8.9,5.1c-3.1,1.4-6.3,2.4-9.8,3.1
				c-3.5,0.7-7.3,1-11.5,1c-5.6,0-10.8-0.7-15.4-2.2c-4.6-1.5-8.5-3.6-11.7-6.5c-3.2-2.9-5.7-6.4-7.4-10.7
				c-1.8-4.3-2.6-9.2-2.6-14.7c0-4.4,1.1-8.9,3.3-13.5c2.2-4.6,6.1-8.7,11.5-12.5c5.5-3.8,12.9-6.9,22.2-9.5c9.3-2.5,21-4,35.1-4.3
				v-5.2c0-7.2-1.5-12.4-4.5-15.7c-3-3.2-7.2-4.8-12.7-4.8c-4.4,0-7.9,0.5-10.7,1.4c-2.8,1-5.3,2-7.4,3.2c-2.2,1.2-4.3,2.3-6.4,3.2
				c-2.1,1-4.5,1.4-7.4,1.4c-2.5,0-4.7-0.6-6.4-1.9c-1.8-1.3-3.2-2.8-4.3-4.5L1406.3,116.2z M1472.7,172.2c-7.4,0.3-13.5,1-18.2,1.9
				c-4.8,1-8.5,2.1-11.3,3.6c-2.8,1.4-4.7,3.1-5.8,4.9c-1.1,1.8-1.6,3.8-1.6,6c0,4.2,1.2,7.2,3.5,8.9c2.3,1.7,5.7,2.6,10.1,2.6
				c4.8,0,8.9-0.8,12.5-2.5c3.6-1.7,7.2-4.4,10.8-8.1V172.2z"/>
			<path class="st0" d="M1637.4,99l-66,155.5c-1.1,2.5-2.5,4.3-4,5.4s-4.1,1.7-7.6,1.7h-27.6l23.8-50L1506.6,99h32.6
				c2.9,0,5.1,0.6,6.6,1.9c1.6,1.3,2.7,2.8,3.4,4.5l20.2,53.2c1.9,4.8,3.5,9.8,4.6,14.9c0.9-2.5,1.7-5.1,2.6-7.6
				c0.9-2.5,1.8-5,2.7-7.5l18.3-53c0.7-1.8,2-3.3,3.8-4.6c1.8-1.2,3.8-1.8,6-1.8H1637.4z"/>
			<path class="st1" d="M1786.6,222.5h-36.4c-6.8,0-11.6-2.5-14.5-7.6l-28.8-50.4c-1.3-2.1-2.9-3.7-4.5-4.7c-1.7-1-4-1.5-7.1-1.5
				H1685v64.2h-40.2V49h56.4c12.5,0,23.2,1.3,32.1,3.9c8.8,2.6,16.1,6.2,21.7,10.8c5.6,4.6,9.7,10,12.2,16.3
				c2.5,6.3,3.8,13.1,3.8,20.5c0,5.6-0.8,11-2.3,16c-1.5,5-3.7,9.6-6.7,13.9c-2.9,4.3-6.6,8-10.9,11.4c-4.3,3.3-9.3,6.1-14.9,8.2
				c2.6,1.4,5.1,3,7.4,5.1c2.3,2,4.4,4.4,6.2,7.2L1786.6,222.5z M1701.1,130.6c5.5,0,10.1-0.7,14-2.1c3.8-1.4,7-3.3,9.5-5.8
				c2.5-2.5,4.2-5.3,5.4-8.6c1.1-3.3,1.7-6.8,1.7-10.7c0-7.6-2.5-13.6-7.4-17.9c-5-4.3-12.6-6.4-23-6.4H1685v51.4H1701.1z"/>
			<path class="st1" d="M1817.9,167.4c1.2,10.3,4.3,17.8,9.4,22.4c5.1,4.6,11.6,7,19.6,7c4.3,0,8-0.5,11.1-1.5
				c3.1-1,5.8-2.2,8.3-3.5c2.4-1.3,4.6-2.4,6.7-3.5c2-1,4.1-1.5,6.4-1.5c2.9,0,5.2,1.1,6.7,3.2l10.7,13.2
				c-3.8,4.4-7.9,7.9-12.3,10.7s-8.9,4.9-13.6,6.4s-9.3,2.6-13.9,3.2c-4.6,0.6-9.1,0.9-13.3,0.9c-8.7,0-16.8-1.4-24.3-4.2
				c-7.6-2.8-14.2-7-19.9-12.6s-10.2-12.5-13.5-20.7c-3.3-8.3-4.9-17.9-4.9-28.8c0-8.3,1.4-16.1,4.2-23.5
				c2.8-7.4,6.9-13.9,12.1-19.4c5.3-5.6,11.7-10,19.2-13.2c7.5-3.3,16-4.9,25.4-4.9c8.2,0,15.7,1.3,22.4,3.8
				c6.8,2.5,12.6,6.2,17.5,11.1c4.9,4.8,8.7,10.8,11.4,17.8c2.7,7,4.1,15,4.1,23.9c0,2.8-0.1,5-0.4,6.8c-0.2,1.7-0.7,3.1-1.3,4.2
				c-0.6,1-1.5,1.7-2.6,2.1c-1.1,0.4-2.4,0.6-4.1,0.6H1817.9z M1864.3,145.9c0-2.9-0.4-5.8-1.1-8.6c-0.8-2.8-2-5.3-3.7-7.4
				c-1.7-2.2-4-3.9-6.7-5.3c-2.8-1.3-6.2-2-10.1-2c-7,0-12.5,2-16.4,6c-4,4-6.6,9.8-7.9,17.3H1864.3z"/>
			<path class="st1" d="M1943.9,112.4c2.4-2.2,4.8-4.3,7.4-6.2s5.3-3.5,8.2-4.8c2.9-1.3,6-2.3,9.4-3.1c3.4-0.8,7-1.1,11-1.1
				c6.7,0,12.7,1.2,17.9,3.5c5.2,2.3,9.6,5.6,13.2,9.8s6.3,9.1,8.1,14.9c1.8,5.8,2.7,12,2.7,18.8v78.5h-36.9V144
				c0-6-1.4-10.7-4.2-14.1c-2.8-3.4-6.9-5.1-12.3-5.1c-4.1,0-7.8,0.9-11.4,2.6c-3.5,1.7-7,4-10.3,7v88.1h-36.9V99h22.9
				c4.6,0,7.6,2.1,9,6.2L1943.9,112.4z"/>
			<path class="st1" d="M2080.3,224.4c-5.9,0-11.1-0.9-15.5-2.6c-4.5-1.7-8.3-4.1-11.3-7.3c-3.1-3.1-5.4-6.9-7-11.4
				c-1.6-4.4-2.4-9.4-2.4-14.9v-63.8h-10.5c-1.9,0-3.5-0.6-4.9-1.8c-1.4-1.2-2-3-2-5.4v-14.4l19.7-3.8l7.3-30.1
				c1-3.8,3.7-5.7,8.1-5.7h19.3v36.1h30.6v25.2H2081v61.3c0,2.9,0.7,5.2,2.1,7.1c1.4,1.9,3.4,2.8,6,2.8c1.3,0,2.5-0.1,3.4-0.4
				c0.9-0.3,1.7-0.6,2.4-1c0.7-0.4,1.3-0.7,1.9-0.9s1.3-0.4,2.1-0.4c1.1,0,2,0.3,2.7,0.8c0.7,0.5,1.4,1.3,2.1,2.4l11.2,17.5
				c-4.8,3.6-10.1,6.3-16.1,8C2092.8,223.5,2086.7,224.4,2080.3,224.4z"/>
		</g>
		<g>
			<path class="st1" d="M2154.6,67.8h-11.9v32.8h-5.5V67.8h-11.9v-4.6h29.3V67.8z"/>
			<path class="st1" d="M2203,63.2v37.4h-4.8V74c0-0.4,0-0.8,0-1.3c0-0.5,0.1-0.9,0.1-1.4l-12.5,22.8c-0.4,0.9-1.1,1.3-2,1.3h-0.8
				c-0.9,0-1.6-0.4-2-1.3l-12.7-22.9c0.1,1,0.2,1.9,0.2,2.7v26.6h-4.9V63.2h4.1c0.5,0,0.9,0.1,1.1,0.1c0.3,0.1,0.5,0.4,0.8,0.8
				l12.5,22.4c0.2,0.5,0.5,0.9,0.7,1.4c0.2,0.5,0.4,1,0.6,1.5c0.4-1,0.8-2,1.3-3l12.3-22.4c0.2-0.4,0.5-0.7,0.8-0.8
				c0.3-0.1,0.6-0.1,1.1-0.1H2203z"/>
		</g>
	</g>
</g>
</svg>
